<svg width="92" height="54" viewBox="0 0 92 54" fill="none" xmlns="http://www.w3.org/2000/svg">
<g id="Group">
<path id="Fill 1" fill-rule="evenodd" clip-rule="evenodd" d="M34.4678 1.00096C33.9155 1.00097 33.4678 1.44869 33.4678 2.00098L33.4679 6.42846C33.4679 6.98075 33.9156 7.42845 34.4679 7.42844L68.2713 7.42777C77.7136 7.42759 85.1295 15.4136 85.1297 25.7518C85.1297 26.0443 85.3668 26.2814 85.6593 26.2814L90.4707 26.2813C90.7632 26.2813 91.0003 26.0442 91.0003 25.7517C91 11.9345 80.8908 1.00004 68.2711 1.00029L34.4678 1.00096Z" fill="#6B7B84" stroke="#80949F" stroke-width="0.5"/>
<path id="Fill 3" fill-rule="evenodd" clip-rule="evenodd" d="M6.92442 26.3879C6.92442 26.1372 6.72118 25.934 6.47048 25.934L1.45344 25.9341C1.20274 25.9341 0.999516 26.1373 0.999521 26.388C0.9998 40.5244 10.4929 52.1958 22.7679 52.9594L62.013 52.9976C62.5657 52.9982 63.014 52.5503 63.014 51.9976L63.0139 47.1833C63.0139 46.631 62.5662 46.1833 62.0139 46.1833L24.1214 46.1841C14.6165 46.1549 6.92464 37.3359 6.92442 26.3879Z" fill="#6B7B84" stroke="#80949F" stroke-width="0.5"/>
<path id="Fill 5" fill-rule="evenodd" clip-rule="evenodd" d="M26.5421 41.154C29.0958 41.1539 31.2228 40.6088 33.3237 39.4874L33.4688 39.3383L33.4686 31.3134L32.6825 32.419C31.1698 34.2351 29.1382 35.2347 26.8397 35.2348C22.5585 35.2348 18.2586 32.195 18.2585 26.385C18.2584 21.9945 21.2238 17.3282 26.6888 17.3281C27.7792 17.3281 30.4311 17.6113 32.6784 20.233L33.4684 21.302L33.4682 13.3135L33.3296 13.1625C31.1889 11.9839 29.0056 11.411 26.5156 11.4111C22.2574 11.4112 18.9338 12.6428 16.2875 15.1742C14.6089 16.7606 11.8093 20.3158 11.8094 26.3016C11.8095 30.7275 13.244 34.1839 16.3094 37.1818C19.161 39.9288 22.3228 41.154 26.5421 41.154Z" fill="#6B7B84" stroke="#80949F" stroke-width="0.5"/>
<g id="Fill 6">
<path fill-rule="evenodd" clip-rule="evenodd" d="M44.9738 18.1037L46.2459 18.1036C47.4128 18.1036 48.7427 18.1735 49.7493 18.9272C50.2408 19.3129 51.0655 20.2058 51.0655 21.8276C51.0656 23.0261 50.5835 24.1007 49.7872 24.7713C48.7662 25.5855 47.5527 25.5388 46.5775 25.5388L44.974 25.5389L44.9738 18.1037ZM47.8333 30.9366C50.8462 30.9365 53.2045 29.9817 54.8423 28.1831C56.8569 25.9743 57.1579 22.936 57.1579 21.3342C57.1579 19.6202 56.788 16.2772 54.3077 13.8568C52.2746 11.8997 50.1054 11.4107 47.0454 11.4107L38.8828 11.4109L38.8834 41.1538L45.0918 41.1536L45.0916 30.9366L47.8333 30.9366Z" fill="#6B7B84"/>
<path d="M44.9738 18.1037L44.9738 17.8537L44.7238 17.8537L44.7238 18.1037L44.9738 18.1037ZM46.2459 18.1036L46.2459 17.8536L46.2459 18.1036ZM49.7493 18.9272L49.9037 18.7305L49.8991 18.7271L49.7493 18.9272ZM49.7872 24.7713L49.9431 24.9669L49.9482 24.9626L49.7872 24.7713ZM46.5775 25.5388L46.5775 25.2888L46.5775 25.5388ZM44.974 25.5389L44.724 25.5389L44.724 25.7889L44.974 25.7889L44.974 25.5389ZM54.8423 28.1831L54.6576 28.0146L54.6574 28.0147L54.8423 28.1831ZM54.3077 13.8568L54.4823 13.6778L54.481 13.6767L54.3077 13.8568ZM38.8828 11.4109L38.8828 11.1609L38.6328 11.1609L38.6328 11.4109L38.8828 11.4109ZM38.8834 41.1538L38.6334 41.1538L38.6334 41.4038L38.8834 41.4038L38.8834 41.1538ZM45.0918 41.1536L45.0918 41.4036L45.3418 41.4036L45.3418 41.1536L45.0918 41.1536ZM45.0916 30.9366L45.0916 30.6866L44.8416 30.6866L44.8416 30.9366L45.0916 30.9366ZM44.9738 18.3537L46.2459 18.3536L46.2459 17.8536L44.9738 17.8537L44.9738 18.3537ZM46.2459 18.3536C47.4174 18.3536 48.6669 18.429 49.5995 19.1274L49.8991 18.7271C48.8186 17.918 47.4082 17.8536 46.2459 17.8536L46.2459 18.3536ZM49.595 19.1239C50.045 19.4771 50.8155 20.3038 50.8155 21.8277L51.3155 21.8276C51.3155 20.1079 50.4366 19.1488 49.9036 18.7306L49.595 19.1239ZM50.8155 21.8277C50.8156 22.9609 50.3599 23.9622 49.6262 24.5801L49.9482 24.9626C50.8071 24.2393 51.3156 23.0914 51.3155 21.8276L50.8155 21.8277ZM49.6313 24.5759C48.6907 25.326 47.5729 25.2888 46.5775 25.2888L46.5775 25.7888C47.5324 25.7888 48.8418 25.845 49.9431 24.9668L49.6313 24.5759ZM46.5775 25.2888L44.974 25.2889L44.974 25.7889L46.5775 25.7888L46.5775 25.2888ZM45.224 25.5389L45.2238 18.1036L44.7238 18.1037L44.724 25.5389L45.224 25.5389ZM47.8333 31.1866C50.9017 31.1865 53.3328 30.2122 55.0271 28.3514L54.6574 28.0147C53.0762 29.7513 50.7907 30.6865 47.8332 30.6866L47.8333 31.1866ZM55.027 28.3515C57.1065 26.0717 57.4079 22.9531 57.4079 21.3342L56.9079 21.3342C56.9079 22.9189 56.6073 25.877 54.6576 28.0146L55.027 28.3515ZM57.4079 21.3342C57.4079 19.5976 57.0354 16.1694 54.4823 13.6778L54.1331 14.0357C56.5405 16.3851 56.9079 19.6429 56.9079 21.3342L57.4079 21.3342ZM54.481 13.6767C52.3824 11.6565 50.1378 11.1607 47.0454 11.1607L47.0454 11.6607C50.0729 11.6607 52.1667 12.1429 54.1343 14.0369L54.481 13.6767ZM47.0454 11.1607L38.8828 11.1609L38.8828 11.6609L47.0454 11.6607L47.0454 11.1607ZM38.6328 11.4109L38.6334 41.1538L39.1334 41.1538L39.1328 11.4109L38.6328 11.4109ZM38.8834 41.4038L45.0918 41.4036L45.0918 40.9036L38.8834 40.9038L38.8834 41.4038ZM45.3418 41.1536L45.3416 30.9366L44.8416 30.9366L44.8418 41.1536L45.3418 41.1536ZM45.0916 31.1866L47.8333 31.1866L47.8332 30.6866L45.0916 30.6866L45.0916 31.1866Z" fill="#80949F"/>
</g>
<g id="Fill 7">
<path fill-rule="evenodd" clip-rule="evenodd" d="M75.7823 25.457C74.4325 24.1432 72.5483 23.3816 70.4098 22.5917C68.8862 22.0093 68.0466 21.6884 67.4869 21.1278C67.0451 20.7158 66.8482 20.2686 66.8482 19.6775C66.8481 18.3827 67.6489 16.9991 69.8972 16.999C71.4251 16.999 72.7044 17.7167 73.6998 19.1312L74.095 19.6929L77.3734 15.1082L77.0745 14.7794C75.0693 12.575 72.4271 11.4104 69.4333 11.4104C63.393 11.4106 60.6892 15.7276 60.6893 20.0061C60.6894 22.302 61.4347 24.1536 62.9 25.5072C64.2119 26.7424 65.8118 27.4345 67.3464 27.9994L67.5199 28.0626C68.8826 28.5574 70.292 29.0695 71.1338 29.8971C71.7194 30.4882 71.9805 31.1306 71.9805 31.9799C71.9805 33.9261 70.5854 35.2341 68.5089 35.2341C66.8675 35.2342 64.7061 34.3503 63.5626 31.8704L63.2635 31.2206L59.1885 35.3648L59.4288 35.7382C60.729 37.7606 63.6629 41.1534 68.7023 41.1533C74.2591 41.1532 78.1402 37.2284 78.1401 31.6093C78.1401 28.3954 76.8565 26.4879 75.7823 25.457Z" fill="#6B7B84"/>
<path d="M75.7823 25.457C74.4325 24.1432 72.5483 23.3816 70.4098 22.5917C68.8862 22.0093 68.0466 21.6884 67.4869 21.1278C67.0451 20.7158 66.8482 20.2686 66.8482 19.6775C66.8481 18.3827 67.6489 16.9991 69.8972 16.999C71.4251 16.999 72.7044 17.7167 73.6998 19.1312L74.095 19.6929L77.3734 15.1082L77.0745 14.7794C75.0693 12.575 72.4271 11.4104 69.4333 11.4104C63.393 11.4106 60.6892 15.7276 60.6893 20.0061C60.6894 22.302 61.4347 24.1536 62.9 25.5072C64.2119 26.7424 65.8118 27.4345 67.3464 27.9994L67.5199 28.0626C68.8826 28.5574 70.292 29.0695 71.1338 29.8971C71.7194 30.4882 71.9805 31.1306 71.9805 31.9799C71.9805 33.9261 70.5854 35.2341 68.5089 35.2341C66.8675 35.2342 64.7061 34.3503 63.5626 31.8704L63.2635 31.2206L59.1885 35.3648L59.4288 35.7382C60.729 37.7606 63.6629 41.1534 68.7023 41.1533C74.2591 41.1532 78.1402 37.2284 78.1401 31.6093C78.1401 28.3954 76.8565 26.4879 75.7823 25.457" stroke="#80949F" stroke-width="0.5"/>
</g>
</g>
</svg>
