<svg width="92" height="54" viewBox="0 0 92 54" fill="none" xmlns="http://www.w3.org/2000/svg"><path fill-rule="evenodd" clip-rule="evenodd" d="M34.468 1.001a1 1 0 0 0-1 1v4.427a1 1 0 0 0 1 1H68.27c9.443 0 16.858 7.986 16.859 18.324 0 .292.237.53.53.53h4.81a.53.53 0 0 0 .53-.53C91 11.935 80.89 1 68.271 1l-33.803.001ZM6.924 26.388a.454.454 0 0 0-.454-.454H1.453a.454.454 0 0 0-.453.454c0 14.136 9.493 25.808 21.768 26.571l39.245.039a1 1 0 0 0 1.001-1v-4.815a1 1 0 0 0-1-1l-37.893.001c-9.504-.03-17.196-8.848-17.197-19.796Z" fill="#6B7B84" stroke="#80949F" stroke-width=".5"/><path fill-rule="evenodd" clip-rule="evenodd" d="M26.542 41.154c2.554 0 4.68-.545 6.782-1.667l.145-.149v-8.025l-.787 1.106c-1.512 1.816-3.544 2.816-5.842 2.816-4.282 0-8.581-3.04-8.581-8.85 0-4.39 2.965-9.057 8.43-9.057 1.09 0 3.742.283 5.99 2.905l.79 1.069v-7.989l-.14-.15c-2.14-1.18-4.323-1.752-6.813-1.752-4.259 0-7.582 1.232-10.228 3.763-1.68 1.587-4.479 5.142-4.479 11.128 0 4.425 1.435 7.882 4.5 10.88 2.852 2.747 6.014 3.972 10.233 3.972Z" fill="#6B7B84" stroke="#80949F" stroke-width=".5"/><path fill-rule="evenodd" clip-rule="evenodd" d="M44.974 18.104h1.272c1.167 0 2.497.07 3.503.823.492.386 1.316 1.279 1.316 2.9 0 1.2-.481 2.274-1.278 2.944-1.02.814-2.234.768-3.21.768h-1.603v-7.435Zm2.86 12.833c3.012 0 5.37-.955 7.008-2.754 2.015-2.209 2.316-5.247 2.316-6.849 0-1.714-.37-5.057-2.85-7.477-2.033-1.957-4.203-2.446-7.263-2.446h-8.162v29.743h6.209V30.937h2.741Z" fill="#6B7B84"/><path d="M44.974 18.104v-.25h-.25v.25h.25Zm1.272 0v-.25.25Zm3.503.823.155-.197-.005-.003-.15.2Zm.038 5.844.156.196.005-.004-.16-.192Zm-3.21.768v-.25.25Zm-1.603 0h-.25v.25h.25v-.25Zm9.868 2.644-.184-.168.184.168Zm-.534-14.326.174-.18h-.001l-.173.18ZM38.883 11.41v-.25h-.25v.25h.25Zm0 29.743h-.25v.25h.25v-.25Zm6.209 0v.25h.25v-.25h-.25Zm0-10.217v-.25h-.25v.25h.25Zm-.118-12.583h1.272v-.5h-1.272v.5Zm1.272 0c1.171 0 2.42.075 3.353.773l.3-.4c-1.08-.809-2.49-.873-3.653-.873v.5Zm3.349.77c.45.353 1.22 1.18 1.22 2.704h.5c0-1.72-.878-2.68-1.411-3.097l-.309.393Zm1.22 2.704c0 1.133-.455 2.134-1.189 2.752l.322.383c.86-.724 1.368-1.872 1.367-3.135h-.5Zm-1.184 2.748c-.94.75-2.058.713-3.053.713v.5c.954 0 2.264.056 3.365-.822l-.312-.391Zm-3.053.713h-1.604v.5h1.604v-.5Zm-1.354.25v-7.435h-.5v7.435h.5Zm2.61 5.648c3.068 0 5.499-.975 7.193-2.836l-.37-.336c-1.58 1.736-3.866 2.671-6.824 2.672v.5Zm7.193-2.835c2.08-2.28 2.38-5.399 2.38-7.018h-.5c0 1.585-.3 4.543-2.25 6.68l.37.338Zm2.38-7.018c0-1.736-.372-5.165-2.925-7.656l-.349.358c2.407 2.35 2.775 5.607 2.775 7.298h.5Zm-2.926-7.657c-2.099-2.02-4.343-2.516-7.436-2.516v.5c3.028 0 5.122.482 7.09 2.376l.346-.36Zm-7.436-2.516h-8.162v.5h8.162v-.5Zm-8.412.25v29.743h.5V11.41h-.5Zm.25 29.993h6.209v-.5h-6.209v.5Zm6.459-.25V30.937h-.5v10.217h.5Zm-.25-9.967h2.741v-.5h-2.741v.5Z" fill="#80949F"/><path fill-rule="evenodd" clip-rule="evenodd" d="M75.782 25.457c-1.35-1.314-3.234-2.075-5.372-2.865-1.524-.583-2.363-.904-2.923-1.464-.442-.412-.639-.86-.639-1.45 0-1.295.8-2.679 3.05-2.679 1.527 0 2.806.718 3.802 2.132l.395.562 3.278-4.585-.299-.329c-2.005-2.204-4.647-3.369-7.64-3.369-6.041 0-8.745 4.318-8.745 8.596 0 2.296.746 4.148 2.211 5.501 1.312 1.235 2.912 1.927 4.446 2.492l.174.064c1.363.494 2.772 1.007 3.614 1.834.585.591.847 1.234.847 2.083 0 1.946-1.396 3.254-3.472 3.254-1.641 0-3.803-.884-4.946-3.364l-.3-.65-4.075 4.145.24.373c1.301 2.023 4.235 5.415 9.274 5.415 5.557 0 9.438-3.925 9.438-9.544 0-3.214-1.284-5.121-2.358-6.152Z" fill="#6B7B84"/><path d="M75.782 25.457c-1.35-1.314-3.234-2.075-5.372-2.865-1.524-.583-2.363-.904-2.923-1.464-.442-.412-.639-.86-.639-1.45 0-1.295.8-2.679 3.05-2.679 1.527 0 2.806.718 3.802 2.132l.395.562 3.278-4.585-.299-.329c-2.005-2.204-4.647-3.369-7.64-3.369-6.041 0-8.745 4.318-8.745 8.596 0 2.296.746 4.148 2.211 5.501 1.312 1.235 2.912 1.927 4.446 2.492l.174.064c1.363.494 2.772 1.007 3.614 1.834.585.591.847 1.234.847 2.083 0 1.946-1.396 3.254-3.472 3.254-1.641 0-3.803-.884-4.946-3.364l-.3-.65-4.075 4.145.24.373c1.301 2.023 4.235 5.415 9.274 5.415 5.557 0 9.438-3.925 9.438-9.544 0-3.214-1.284-5.121-2.358-6.152" stroke="#80949F" stroke-width=".5"/></svg>